<?xml version="1.0" encoding="UTF-8" standalone="no"?>
<!-- Created with Inkscape (http://www.inkscape.org/) -->

<svg
   width="23.722973mm"
   height="23.892464mm"
   viewBox="0 0 23.722973 23.892464"
   version="1.1"
   id="svg5"
   xml:space="preserve"
   inkscape:export-filename="axis-logo.svg"
   inkscape:export-xdpi="118.53333"
   inkscape:export-ydpi="118.53333"
   sodipodi:docname="axis-logo.svg"
   xmlns:inkscape="http://www.inkscape.org/namespaces/inkscape"
   xmlns:sodipodi="http://sodipodi.sourceforge.net/DTD/sodipodi-0.dtd"
   xmlns="http://www.w3.org/2000/svg"
   xmlns:svg="http://www.w3.org/2000/svg"><sodipodi:namedview
     id="namedview7"
     pagecolor="#ffffff"
     bordercolor="#000000"
     borderopacity="0.25"
     inkscape:showpageshadow="2"
     inkscape:pageopacity="0.0"
     inkscape:pagecheckerboard="0"
     inkscape:deskcolor="#d1d1d1"
     inkscape:document-units="mm"
     showgrid="false" /><defs
     id="defs2" /><g
     inkscape:label="Layer 1"
     inkscape:groupmode="layer"
     id="layer1"
     transform="translate(-55.03333,-0.24532903)"><path
       style="display:none;fill:#ff8965;stroke:none;stroke-width:0.352778"
       d="M 0,24.31034 H 0.352778 C 5.35993,8.9481032 24.011257,1.5007742 38.45278,8.7205972 42.604264,10.79613 46.655924,14.03939 49.195574,17.96034 c 1.28235,1.97965 2.02283,4.22758 3.015545,6.35 0.65264,-1.82488 -0.508,-4.54512 -1.067155,-6.35 C 49.003304,11.05288 44.482814,6.1140282 38.100002,2.7522432 22.238478,-5.6017568 0.376728,6.0582182 0,24.31034 M 66.674999,9.8464502 c -3.12279,-0.1706 -5.58059,-2.706686 -7.0993,-5.291665 -0.60113,-1.023034 -1.45944,-3.69485301 -2.81446,-3.90832101 -1.9939,-0.31413 -1.65735,3.59576001 -1.41041,4.61387701 1.05622,4.354939 7.76994,10.0121888 11.32417,4.586109 m 2.11667,2.1166698 h 0.35278 c 0.75847,-5.0597518 5.5238,-7.5181548 9.52501,-9.8777788 -1.61184,-3.07157601 -6.30943,-1.76659101 -8.46527,0.0754 -3.46745,2.962331 -3.86186,6.084414 -1.41252,9.8023788 m 22.22501,12.34722 c -0.26317,-3.01442 -1.7526,-5.78154 -2.05634,-8.81945 -0.52105,-5.21031 0.65158,-9.8668738 2.05634,-14.81666281 -4.68912,-1.385521 -7.95091,2.55935001 -9.15846,6.70277701 -2.07857,7.1337658 0.48401,16.8615058 9.15846,16.9333358 m 8.81945,-23.79208681 c -3.28613,0.86239701 -5.09517,4.71615601 -4.90044,7.91708501 0.0794,1.309092 1.16381,4.5105418 3.02542,3.9682218 0.94968,-0.27661 0.68827,-1.51719 0.49742,-2.20462 -0.42122,-1.5163758 -1.75049,-3.9696278 -0.72884,-5.4925338 0.98002,-1.46141 3.779311,-1.276166 5.281441,-1.109514 0.68262,0.07575 1.64782,0.371044 2.24966,-0.115411 0.8195,-0.66208 0.0462,-1.795816 -0.53834,-2.301498 -1.23507,-1.06821401 -3.37926,-1.05727801 -4.886321,-0.66173001 M 101.24724,11.61034 c -0.68404,2.49414 2.0066,5.78873 0.69074,8.01698 -1.14124,1.9322 -4.163491,1.47479 -5.980651,1.31177 -0.73307,-0.0658 -1.89406,-0.0865 -1.89406,0.94862 0,2.52056 4.16313,2.57263 5.77286,2.08999 5.129031,-1.53783 7.232651,-10.38263 1.411111,-12.36736 m -33.866681,2.82222 c 2.76719,0.63313 5.10894,2.60085 6.66574,4.93889 0.75001,1.12628 1.50213,4.01475 2.91889,4.42334 2.08421,0.6011 1.87748,-3.38205 1.65946,-4.42334 -1.01529,-4.84914 -7.19278,-9.6522098 -11.24409,-4.93889 m -2.82222,-1.76389 c -0.46885,5.2051 -5.81096,7.23315 -9.52501,9.87778 v 0.35278 c 3.53942,2.69804 8.34073,0.63845 10.63484,-2.82223 1.53035,-2.3085 1.39207,-5.87791 -1.10983,-7.40833 z"
       id="path181" /><path
       style="fill:#ff8965;stroke:none;stroke-width:0.352778"
       d="m 66.674999,9.8464502 c -3.12279,-0.1706 -5.58059,-2.706686 -7.0993,-5.291665 -0.60113,-1.023034 -1.45944,-3.69485301 -2.81446,-3.90832101 -1.9939,-0.31413 -1.65735,3.59576001 -1.41041,4.61387701 1.05622,4.354939 7.76994,10.0121888 11.32417,4.586109 m 2.11667,2.1166698 h 0.35278 c 0.75847,-5.0597518 5.5238,-7.5181548 9.52501,-9.8777788 -1.61184,-3.07157601 -6.30943,-1.76659101 -8.46527,0.0754 -3.46745,2.962331 -3.86186,6.084414 -1.41252,9.8023788 m -1.41111,2.46944 c 2.76719,0.63313 5.10894,2.60085 6.66574,4.93889 0.75001,1.12628 1.50213,4.01475 2.91889,4.42334 2.08421,0.6011 1.87748,-3.38205 1.65946,-4.42334 -1.01529,-4.84914 -7.19278,-9.6522098 -11.24409,-4.93889 m -2.82222,-1.76389 c -0.46885,5.2051 -5.81096,7.23315 -9.52501,9.87778 v 0.35278 c 3.53942,2.69804 8.34073,0.63845 10.63484,-2.82223 1.53035,-2.3085 1.39207,-5.87791 -1.10983,-7.40833 z"
       id="path1092"
       inkscape:label="path1092"
       sodipodi:nodetypes="cccccccccccccscccccc" /></g></svg>
