<?xml version="1.0" encoding="UTF-8" standalone="no"?>
<!-- Created with Inkscape (http://www.inkscape.org/) -->

<svg
   width="39.409584mm"
   height="11.625078mm"
   viewBox="0 0 39.409585 11.625078"
   version="1.1"
   id="svg5"
   xml:space="preserve"
   inkscape:export-filename="click.svg"
   inkscape:export-xdpi="118.53333"
   inkscape:export-ydpi="118.53333"
   sodipodi:docname="axis-logo.svg"
   inkscape:version="1.2 (dc2aeda, 2022-05-15)"
   xmlns:inkscape="http://www.inkscape.org/namespaces/inkscape"
   xmlns:sodipodi="http://sodipodi.sourceforge.net/DTD/sodipodi-0.dtd"
   xmlns="http://www.w3.org/2000/svg"
   xmlns:svg="http://www.w3.org/2000/svg"><sodipodi:namedview
     id="namedview7"
     pagecolor="#ffffff"
     bordercolor="#000000"
     borderopacity="0.25"
     inkscape:showpageshadow="2"
     inkscape:pageopacity="0.0"
     inkscape:pagecheckerboard="0"
     inkscape:deskcolor="#d1d1d1"
     inkscape:document-units="mm"
     showgrid="false"
     inkscape:zoom="2.8704695"
     inkscape:cx="65.320325"
     inkscape:cy="42.32757"
     inkscape:window-width="1385"
     inkscape:window-height="847"
     inkscape:window-x="54"
     inkscape:window-y="25"
     inkscape:window-maximized="0"
     inkscape:current-layer="layer1" /><defs
     id="defs2"><linearGradient
       id="linearGradient2653"
       inkscape:swatch="solid"><stop
         style="stop-color:#000000;stop-opacity:1;"
         offset="0"
         id="stop2651" /></linearGradient></defs><g
     inkscape:label="Layer 1"
     inkscape:groupmode="layer"
     id="layer1"
     transform="translate(-5.4479251,-9.1705115)"><path
       style="display:none;fill:#ff8965;stroke:none;stroke-width:0.352778"
       d="M 0,24.31034 H 0.352778 C 5.35993,8.9481032 24.011257,1.5007742 38.45278,8.7205972 42.604264,10.79613 46.655924,14.03939 49.195574,17.96034 c 1.28235,1.97965 2.02283,4.22758 3.015545,6.35 0.65264,-1.82488 -0.508,-4.54512 -1.067155,-6.35 C 49.003304,11.05288 44.482814,6.1140282 38.100002,2.7522432 22.238478,-5.6017568 0.376728,6.0582182 0,24.31034 M 66.674999,9.8464502 c -3.12279,-0.1706 -5.58059,-2.706686 -7.0993,-5.291665 -0.60113,-1.023034 -1.45944,-3.69485301 -2.81446,-3.90832101 -1.9939,-0.31413 -1.65735,3.59576001 -1.41041,4.61387701 1.05622,4.354939 7.76994,10.0121888 11.32417,4.586109 m 2.11667,2.1166698 h 0.35278 c 0.75847,-5.0597518 5.5238,-7.5181548 9.52501,-9.8777788 -1.61184,-3.07157601 -6.30943,-1.76659101 -8.46527,0.0754 -3.46745,2.962331 -3.86186,6.084414 -1.41252,9.8023788 m 22.22501,12.34722 c -0.26317,-3.01442 -1.7526,-5.78154 -2.05634,-8.81945 -0.52105,-5.21031 0.65158,-9.8668738 2.05634,-14.81666281 -4.68912,-1.385521 -7.95091,2.55935001 -9.15846,6.70277701 -2.07857,7.1337658 0.48401,16.8615058 9.15846,16.9333358 m 8.81945,-23.79208681 c -3.28613,0.86239701 -5.09517,4.71615601 -4.90044,7.91708501 0.0794,1.309092 1.16381,4.5105418 3.02542,3.9682218 0.94968,-0.27661 0.68827,-1.51719 0.49742,-2.20462 -0.42122,-1.5163758 -1.75049,-3.9696278 -0.72884,-5.4925338 0.98002,-1.46141 3.779311,-1.276166 5.281441,-1.109514 0.68262,0.07575 1.64782,0.371044 2.24966,-0.115411 0.8195,-0.66208 0.0462,-1.795816 -0.53834,-2.301498 -1.23507,-1.06821401 -3.37926,-1.05727801 -4.886321,-0.66173001 M 101.24724,11.61034 c -0.68404,2.49414 2.0066,5.78873 0.69074,8.01698 -1.14124,1.9322 -4.163491,1.47479 -5.980651,1.31177 -0.73307,-0.0658 -1.89406,-0.0865 -1.89406,0.94862 0,2.52056 4.16313,2.57263 5.77286,2.08999 5.129031,-1.53783 7.232651,-10.38263 1.411111,-12.36736 m -33.866681,2.82222 c 2.76719,0.63313 5.10894,2.60085 6.66574,4.93889 0.75001,1.12628 1.50213,4.01475 2.91889,4.42334 2.08421,0.6011 1.87748,-3.38205 1.65946,-4.42334 -1.01529,-4.84914 -7.19278,-9.6522098 -11.24409,-4.93889 m -2.82222,-1.76389 c -0.46885,5.2051 -5.81096,7.23315 -9.52501,9.87778 v 0.35278 c 3.53942,2.69804 8.34073,0.63845 10.63484,-2.82223 1.53035,-2.3085 1.39207,-5.87791 -1.10983,-7.40833 z"
       id="path181" /><text
       xml:space="preserve"
       style="font-style:normal;font-variant:normal;font-weight:normal;font-stretch:normal;font-size:7.05556px;font-family:Noteworthy;-inkscape-font-specification:Noteworthy;letter-spacing:0.198437px;opacity:1;fill:#ff8965;fill-opacity:1;stroke-width:0.0386292"
       x="5.2715364"
       y="15.29121"
       id="text1317"
       inkscape:export-filename="click.svg"
       inkscape:export-xdpi="118.53333"
       inkscape:export-ydpi="118.53333"><tspan
         sodipodi:role="line"
         id="tspan1315"
         x="5.2715364"
         y="15.29121"
         style="font-style:normal;font-variant:normal;font-weight:normal;font-stretch:normal;font-family:Noteworthy;-inkscape-font-specification:Noteworthy;fill:#ff8965;fill-opacity:1;stroke-width:0.0386292"
         dx="0">Click for more</tspan></text><a
       id="a4775"><path
         style="opacity:1;fill:none;fill-opacity:0.843137;stroke:#ff8a65;stroke-width:0.362;stroke-linecap:round;stroke-linejoin:round;stroke-dasharray:none;stroke-opacity:0.843137;paint-order:fill markers stroke"
         d="m 17.063967,16.533258 c -1.018286,1.538069 -3.826751,5.043759 1.640799,3.486944 4.213702,-1.199798 12.752823,-4.997865 15.063776,-3.789171 1.636667,0.93575 0.548758,2.429574 -0.330629,4.383561"
         id="path2307"
         sodipodi:nodetypes="cscc" /></a><path
       style="opacity:1;fill:none;fill-opacity:0.843137;stroke:#ff8a65;stroke-width:0.362;stroke-linecap:round;stroke-linejoin:round;stroke-dasharray:none;stroke-opacity:0.843137;paint-order:fill markers stroke"
       d="m 32.818636,19.194326 0.619276,1.420266 1.394298,-0.478855 v 0"
       id="path4981" /></g></svg>
